# xmcd
#
# Track frame offsets:
#	150
#	13300
#	25172
#	38055
#	51287
#	65640
#	78812
#	94242
#	108147
#	123520
#	136902
#	151022
#	162145
#	177607
#	191427
#
# Disc length: 2728 seconds
#
# Revision: 1
# Processed by: cddbd v1.5.2PL0 Copyright (c) Steve Scherf et al.
# Submitted via: audiograbber 1.83.01
#
DISCID=bd0aa60f
DTITLE=Lola Betrán - Las Inmortales De
DYEAR=1995
DGENRE=
TTITLE0=Tristes Recuerdos
TTITLE1=La Ley Del Monte
TTITLE2=Puñalada Trapera
TTITLE3=Golondrina Presumida
TTITLE4=Las Cuidades
TTITLE5=Cariño Nuevo
TTITLE6=Te Solte La Rienda
TTITLE7=Me Cai De La Nube
TTITLE8=Besando La Cruz
TTITLE9=Que Te Vaya Bonito
TTITLE10=Tu Castigo
TTITLE11=En El Ultimo Trago
TTITLE12=Ya Para Que
TTITLE13=El Caballo Blanco
TTITLE14=Si Acaso Vuelves
EXTD=
EXTT0=
EXTT1=
EXTT2=
EXTT3=
EXTT4=
EXTT5=
EXTT6=
EXTT7=
EXTT8=
EXTT9=
EXTT10=
EXTT11=
EXTT12=
EXTT13=
EXTT14=
PLAYORDER=
